<svg width="22" height="22" viewBox="0 0 22 22" fill="none" xmlns="http://www.w3.org/2000/svg">
<path d="M1.53729 0.666281L21.4988 10.5021C21.6076 10.5557 21.6993 10.6388 21.7634 10.7418C21.8275 10.8449 21.8615 10.9638 21.8615 11.0851C21.8615 11.2065 21.8275 11.3254 21.7634 11.4285C21.6993 11.5315 21.6076 11.6145 21.4988 11.6682L1.53599 21.504C1.42415 21.5589 1.29888 21.5806 1.1751 21.5663C1.05131 21.5521 0.934228 21.5026 0.837791 21.4236C0.741354 21.3447 0.669628 21.2398 0.631155 21.1213C0.592683 21.0028 0.589085 20.8757 0.62079 20.7552L3.18049 11.091L0.61949 1.41638C0.58726 1.29563 0.590524 1.16815 0.628892 1.04921C0.667261 0.930262 0.739106 0.824902 0.835821 0.745746C0.932537 0.666591 1.05002 0.616995 1.1742 0.602902C1.29838 0.588808 1.424 0.610813 1.53599 0.666281H1.53729ZM2.24319 2.46418L4.33619 10.3708L4.41679 10.3552L4.49999 10.35H13.6C13.7624 10.3497 13.9191 10.4102 14.0391 10.5196C14.1591 10.6291 14.2339 10.7795 14.2485 10.9412C14.2632 11.103 14.2168 11.2644 14.1184 11.3937C14.02 11.5229 13.8768 11.6106 13.717 11.6396L13.6 11.65H4.49999C4.45989 11.6502 4.41986 11.6467 4.38039 11.6396L2.24449 19.7074L19.7399 11.0858L2.24319 2.46418Z" fill="white"/>
</svg>
