<svg width="117" height="215" viewBox="0 0 117 215" fill="none" xmlns="http://www.w3.org/2000/svg">
<path opacity="0.2" d="M75.0795 215H42.9026V182.75H75.0795V215ZM75.0795 161.25H42.9026V161.175C42.9026 143.437 42.9026 128.119 50.1102 117.39C55.7176 110.267 62.6949 104.345 70.6283 99.9753C74.2107 97.6748 77.5893 95.4926 80.4316 93.2243C92.8881 83.5608 98.4889 67.4452 94.7181 52.1164C88.7516 37.8207 73.57 29.709 58.4021 32.7124C43.2342 35.7159 32.271 49.0045 32.1769 64.5004H0C0 28.8781 28.8122 0.00029238 64.3538 0.00029238C89.0792 -0.0738662 111.691 13.9642 122.637 36.185C132.469 58.8258 128.582 85.1019 112.619 103.91C107.766 109.301 102.318 114.122 96.3806 118.283C91.1849 121.874 86.4451 126.087 82.2656 130.828C76.359 139.799 73.8131 150.577 75.0795 161.25Z" fill="white"/>
</svg>
